0
SECTION
2
HEADER
9
$INSUNITS
70
4
9
$ACADVER
1
AC1014
9
$HANDSEED
5
FFFF
0
ENDSEC
0
SECTION
2
TABLES
0
TABLE
2
VPORT
5
8
100
AcDbSymbolTable
0
ENDTAB
0
TABLE
2
LTYPE
5
5
100
AcDbSymbolTable
0
LTYPE
5
14
100
AcDbSymbolTableRecord
100
AcDbLinetypeTableRecord
2
BYBLOCK
70
0
0
LTYPE
5
15
100
AcDbSymbolTableRecord
100
AcDbLinetypeTableRecord
2
BYLAYER
70
0
0
ENDTAB
0
TABLE
2
LAYER
5
2
100
AcDbSymbolTable
70
2
0
LAYER
5
50
100
AcDbSymbolTableRecord
100
AcDbLayerTableRecord
2
0
70
0
6
CONTINUOUS
0
ENDTAB
0
TABLE
2
STYLE
5
3
100
AcDbSymbolTable
70
1
0
STYLE
5
11
100
AcDbSymbolTableRecord
100
AcDbTextStyleTableRecord
2
STANDARD
70
0
0
ENDTAB
0
TABLE
2
VIEW
5
6
100
AcDbSymbolTable
70
0
0
ENDTAB
0
TABLE
2
UCS
5
7
100
AcDbSymbolTable
70
0
0
ENDTAB
0
TABLE
2
APPID
5
9
100
AcDbSymbolTable
70
2
0
APPID
5
12
100
AcDbSymbolTableRecord
100
AcDbRegAppTableRecord
2
ACAD
70
0
0
ENDTAB
0
TABLE
2
DIMSTYLE
5
A
100
AcDbSymbolTable
70
1
0
ENDTAB
0
TABLE
2
BLOCK_RECORD
5
1
100
AcDbSymbolTable
70
1
0
BLOCK_RECORD
5
1F
100
AcDbSymbolTableRecord
100
AcDbBlockTableRecord
2
*MODEL_SPACE
0
BLOCK_RECORD
5
1B
100
AcDbSymbolTableRecord
100
AcDbBlockTableRecord
2
*PAPER_SPACE
0
ENDTAB
0
ENDSEC
0
SECTION
2
BLOCKS
0
BLOCK
5
20
100
AcDbEntity
100
AcDbBlockBegin
2
*MODEL_SPACE
0
ENDBLK
5
21
100
AcDbEntity
100
AcDbBlockEnd
0
BLOCK
5
1C
100
AcDbEntity
100
AcDbBlockBegin
2
*PAPER_SPACE
0
ENDBLK
5
1D
100
AcDbEntity
100
AcDbBlockEnd
0
ENDSEC
0
SECTION
2
ENTITIES
0
LWPOLYLINE
5
100
100
AcDbEntity
8
0
100
AcDbPolyline
90
168
70
1
43
0.0
10
31.087499999999999
20
-140.49999999999997
10
31.087499999999999
20
140.50000000000006
10
19.912500000000001
20
140.50000000000006
10
19.912500000000001
20
143.67500000000004
10
14.912499999999998
20
143.67500000000004
10
14.912499999999998
20
140.50000000000006
10
9.6624999999999979
20
140.50000000000006
10
9.6624999999999979
20
134.00000000000003
10
10.912499999999996
20
134.00000000000003
10
10.912499999999996
20
130.50000000000006
10
9.6624999999999979
20
130.50000000000006
10
9.6624999999999979
20
126.50000000000004
10
6.1624999999999961
20
126.50000000000004
10
6.1624999999999961
20
130.50000000000006
10
4.9124999999999961
20
130.50000000000006
10
4.9124999999999961
20
134.00000000000003
10
6.1624999999999961
20
134.00000000000003
10
6.1624999999999961
20
140.50000000000006
10
-0.087500000000004796
20
140.50000000000006
10
-0.087500000000003686
20
143.67500000000004
10
-8.0875000000000039
20
143.67500000000004
10
-8.0875000000000021
20
140.50000000000006
10
-14.337500000000002
20
140.50000000000006
10
-14.337500000000002
20
134.00000000000003
10
-13.087500000000002
20
134.00000000000003
10
-13.087500000000002
20
130.50000000000006
10
-14.337500000000002
20
130.50000000000006
10
-14.337500000000002
20
126.50000000000004
10
-17.837500000000006
20
126.50000000000004
10
-17.837500000000006
20
130.50000000000006
10
-19.087500000000006
20
130.50000000000006
10
-19.087500000000006
20
134.00000000000003
10
-17.837500000000006
20
134.00000000000003
10
-17.837500000000006
20
140.50000000000006
10
-23.087500000000006
20
140.50000000000006
10
-23.087500000000006
20
143.67500000000004
10
-28.087500000000006
20
143.67500000000004
10
-28.087500000000006
20
140.50000000000006
10
-31.087500000000006
20
140.50000000000006
10
-31.087500000000002
20
111.75000000000004
10
-24.587500000000002
20
111.75000000000004
10
-24.587500000000002
20
113.00000000000004
10
-21.087500000000002
20
113.00000000000004
10
-21.087500000000002
20
111.75000000000004
10
-17.087499999999999
20
111.75000000000004
10
-17.087499999999999
20
108.25000000000003
10
-21.087500000000002
20
108.25000000000003
10
-21.087500000000002
20
107.00000000000003
10
-24.587500000000002
20
107.00000000000003
10
-24.587500000000002
20
108.25000000000003
10
-31.087500000000002
20
108.25000000000003
10
-31.087499999999999
20
92.000000000000028
10
-34.262499999999996
20
92.000000000000028
10
-34.262499999999996
20
84.000000000000043
10
-31.087499999999999
20
84.000000000000057
10
-31.087500000000002
20
67.750000000000028
10
-24.587500000000002
20
67.750000000000028
10
-24.587500000000002
20
69.000000000000028
10
-21.087500000000002
20
69.000000000000028
10
-21.087500000000002
20
67.750000000000028
10
-17.087499999999999
20
67.750000000000028
10
-17.087499999999999
20
64.250000000000028
10
-21.087500000000002
20
64.250000000000028
10
-21.087500000000002
20
63.000000000000036
10
-24.587500000000002
20
63.000000000000036
10
-24.587500000000002
20
64.250000000000028
10
-31.087500000000002
20
64.250000000000028
10
-31.087499999999999
20
48.000000000000028
10
-34.262499999999996
20
48.000000000000036
10
-34.262499999999996
20
40.000000000000036
10
-31.087499999999999
20
40.000000000000057
10
-31.087500000000002
20
23.750000000000028
10
-24.587500000000002
20
23.750000000000028
10
-24.587500000000002
20
25.000000000000028
10
-21.087500000000002
20
25.000000000000028
10
-21.087500000000002
20
23.750000000000028
10
-17.087499999999999
20
23.750000000000028
10
-17.087499999999999
20
20.250000000000028
10
-21.087500000000002
20
20.250000000000028
10
-21.087500000000002
20
19.000000000000028
10
-24.587500000000002
20
19.000000000000028
10
-24.587500000000002
20
20.250000000000028
10
-31.087500000000002
20
20.250000000000028
10
-31.087499999999999
20
4.0000000000000213
10
-34.262499999999996
20
4.0000000000000284
10
-34.262499999999996
20
-3.9999999999999725
10
-31.087499999999999
20
-3.9999999999999503
10
-31.087500000000002
20
-20.249999999999957
10
-24.587500000000002
20
-20.249999999999957
10
-24.587500000000002
20
-18.999999999999957
10
-21.087500000000002
20
-18.999999999999957
10
-21.087500000000002
20
-20.249999999999957
10
-17.087499999999999
20
-20.249999999999957
10
-17.087499999999999
20
-23.749999999999957
10
-21.087500000000002
20
-23.749999999999957
10
-21.087500000000002
20
-24.999999999999957
10
-24.587500000000002
20
-24.999999999999957
10
-24.587500000000002
20
-23.749999999999957
10
-31.087500000000002
20
-23.749999999999957
10
-31.087499999999999
20
-39.999999999999986
10
-34.262499999999996
20
-39.999999999999964
10
-34.262499999999996
20
-47.999999999999964
10
-31.087499999999999
20
-47.999999999999957
10
-31.087500000000002
20
-64.249999999999957
10
-24.587500000000002
20
-64.249999999999957
10
-24.587500000000002
20
-62.999999999999964
10
-21.087500000000002
20
-62.999999999999964
10
-21.087500000000002
20
-64.249999999999957
10
-17.087499999999999
20
-64.249999999999957
10
-17.087499999999999
20
-67.749999999999957
10
-21.087500000000002
20
-67.749999999999957
10
-21.087500000000002
20
-68.999999999999957
10
-24.587500000000002
20
-68.999999999999957
10
-24.587500000000002
20
-67.749999999999957
10
-31.087500000000002
20
-67.749999999999957
10
-31.087499999999999
20
-83.999999999999986
10
-34.262499999999996
20
-83.999999999999972
10
-34.262499999999996
20
-91.999999999999957
10
-31.087499999999999
20
-91.999999999999957
10
-31.087500000000002
20
-108.24999999999996
10
-24.587500000000002
20
-108.24999999999996
10
-24.587500000000002
20
-106.99999999999996
10
-21.087500000000002
20
-106.99999999999996
10
-21.087500000000002
20
-108.24999999999996
10
-17.087499999999999
20
-108.24999999999996
10
-17.087499999999999
20
-111.74999999999997
10
-21.087500000000002
20
-111.74999999999997
10
-21.087500000000002
20
-112.99999999999997
10
-24.587500000000002
20
-112.99999999999997
10
-24.587500000000002
20
-111.74999999999997
10
-31.087500000000002
20
-111.74999999999997
10
-31.087499999999988
20
-127.99999999999997
10
-34.262499999999989
20
-127.99999999999997
10
-34.262499999999989
20
-135.99999999999997
10
-31.087499999999988
20
-135.99999999999997
10
-31.087499999999988
20
-140.49999999999997
10
-14.612500000000004
20
-140.49999999999997
10
-14.612500000000004
20
-133.99999999999997
10
-15.862500000000004
20
-133.99999999999997
10
-15.862500000000004
20
-130.49999999999997
10
-14.612500000000004
20
-130.49999999999997
10
-14.612500000000004
20
-126.49999999999997
10
-11.112500000000002
20
-126.49999999999997
10
-11.112500000000002
20
-130.49999999999997
10
-9.8625000000000025
20
-130.49999999999997
10
-9.8625000000000025
20
-133.99999999999997
10
-11.112500000000002
20
-133.99999999999997
10
-11.112500000000002
20
-140.49999999999997
10
-2.8625000000000034
20
-140.49999999999997
10
-2.8625000000000034
20
-143.67499999999998
10
2.1374999999999966
20
-143.67499999999998
10
2.1374999999999966
20
-140.49999999999997
10
10.387499999999996
20
-140.49999999999997
10
10.387499999999996
20
-133.99999999999997
10
9.1374999999999957
20
-133.99999999999997
10
9.1374999999999957
20
-130.49999999999997
10
10.387499999999996
20
-130.49999999999997
10
10.387499999999996
20
-126.49999999999997
10
13.887499999999998
20
-126.49999999999997
10
13.887499999999998
20
-130.49999999999997
10
15.137499999999998
20
-130.49999999999997
10
15.137499999999998
20
-133.99999999999997
10
13.887499999999998
20
-133.99999999999997
10
13.887499999999998
20
-140.49999999999997
10
22.137499999999996
20
-140.49999999999997
10
22.137499999999996
20
-143.67499999999998
10
27.137499999999996
20
-143.67499999999998
10
27.137499999999996
20
-140.49999999999997
0
ENDSEC
0
SECTION
2
OBJECTS
0
DICTIONARY
5
C
100
AcDbDictionary
3
ACAD_GROUP
350
D
3
ACAD_MLINESTYLE
350
17
0
DICTIONARY
5
D
100
AcDbDictionary
0
DICTIONARY
5
1A
330
C
100
AcDbDictionary
0
DICTIONARY
5
17
100
AcDbDictionary
0
ENDSEC
0
EOF
